<svg width="280" height="280" viewBox="0 0 280 280" fill="none" xmlns="http://www.w3.org/2000/svg">
<path d="M8.48485 0H0V8.48485H8.48485V0Z" fill="white"/>
<path d="M16.9697 0H8.48485V8.48485H16.9697V0Z" fill="white"/>
<path d="M25.4545 0H16.9697V8.48485H25.4545V0Z" fill="white"/>
<path d="M33.9394 0H25.4545V8.48485H33.9394V0Z" fill="white"/>
<path d="M42.4242 0H33.9394V8.48485H42.4242V0Z" fill="white"/>
<path d="M50.9091 0H42.4242V8.48485H50.9091V0Z" fill="white"/>
<path d="M59.3939 0H50.9091V8.48485H59.3939V0Z" fill="white"/>
<path d="M76.3636 0H67.8788V8.48485H76.3636V0Z" fill="white"/>
<path d="M84.8485 0H76.3636V8.48485H84.8485V0Z" fill="white"/>
<path d="M118.788 0H110.303V8.48485H118.788V0Z" fill="white"/>
<path d="M152.727 0H144.242V8.48485H152.727V0Z" fill="white"/>
<path d="M161.212 0H152.727V8.48485H161.212V0Z" fill="white"/>
<path d="M178.182 0H169.697V8.48485H178.182V0Z" fill="white"/>
<path d="M186.667 0H178.182V8.48485H186.667V0Z" fill="white"/>
<path d="M212.121 0H203.636V8.48485H212.121V0Z" fill="white"/>
<path d="M229.091 0H220.606V8.48485H229.091V0Z" fill="white"/>
<path d="M237.576 0H229.091V8.48485H237.576V0Z" fill="white"/>
<path d="M246.061 0H237.576V8.48485H246.061V0Z" fill="white"/>
<path d="M254.545 0H246.061V8.48485H254.545V0Z" fill="white"/>
<path d="M263.03 0H254.545V8.48485H263.03V0Z" fill="white"/>
<path d="M271.515 0H263.03V8.48485H271.515V0Z" fill="white"/>
<path d="M280 0H271.515V8.48485H280V0Z" fill="white"/>
<path d="M8.48485 8.48485H0V16.9697H8.48485V8.48485Z" fill="white"/>
<path d="M59.3939 8.48485H50.9091V16.9697H59.3939V8.48485Z" fill="white"/>
<path d="M84.8485 8.48485H76.3636V16.9697H84.8485V8.48485Z" fill="white"/>
<path d="M101.818 8.48485H93.3333V16.9697H101.818V8.48485Z" fill="white"/>
<path d="M118.788 8.48485H110.303V16.9697H118.788V8.48485Z" fill="white"/>
<path d="M127.273 8.48485H118.788V16.9697H127.273V8.48485Z" fill="white"/>
<path d="M144.242 8.48485H135.758V16.9697H144.242V8.48485Z" fill="white"/>
<path d="M152.727 8.48485H144.242V16.9697H152.727V8.48485Z" fill="white"/>
<path d="M161.212 8.48485H152.727V16.9697H161.212V8.48485Z" fill="white"/>
<path d="M178.182 8.48485H169.697V16.9697H178.182V8.48485Z" fill="white"/>
<path d="M186.667 8.48485H178.182V16.9697H186.667V8.48485Z" fill="white"/>
<path d="M203.636 8.48485H195.152V16.9697H203.636V8.48485Z" fill="white"/>
<path d="M229.091 8.48485H220.606V16.9697H229.091V8.48485Z" fill="white"/>
<path d="M280 8.48485H271.515V16.9697H280V8.48485Z" fill="white"/>
<path d="M8.48485 16.9697H0V25.4545H8.48485V16.9697Z" fill="white"/>
<path d="M25.4545 16.9697H16.9697V25.4545H25.4545V16.9697Z" fill="white"/>
<path d="M33.9394 16.9697H25.4545V25.4545H33.9394V16.9697Z" fill="white"/>
<path d="M42.4242 16.9697H33.9394V25.4545H42.4242V16.9697Z" fill="white"/>
<path d="M59.3939 16.9697H50.9091V25.4545H59.3939V16.9697Z" fill="white"/>
<path d="M76.3636 16.9697H67.8788V25.4545H76.3636V16.9697Z" fill="white"/>
<path d="M93.3333 16.9697H84.8485V25.4545H93.3333V16.9697Z" fill="white"/>
<path d="M101.818 16.9697H93.3333V25.4545H101.818V16.9697Z" fill="white"/>
<path d="M110.303 16.9697H101.818V25.4545H110.303V16.9697Z" fill="white"/>
<path d="M118.788 16.9697H110.303V25.4545H118.788V16.9697Z" fill="white"/>
<path d="M127.273 16.9697H118.788V25.4545H127.273V16.9697Z" fill="white"/>
<path d="M135.758 16.9697H127.273V25.4545H135.758V16.9697Z" fill="white"/>
<path d="M169.697 16.9697H161.212L161.212 25.4545H169.697V16.9697Z" fill="white"/>
<path d="M195.152 16.9697H186.667V25.4545H195.152V16.9697Z" fill="white"/>
<path d="M203.636 16.9697H195.152V25.4545H203.636V16.9697Z" fill="white"/>
<path d="M229.091 16.9697H220.606V25.4545H229.091V16.9697Z" fill="white"/>
<path d="M246.061 16.9697H237.576V25.4545H246.061V16.9697Z" fill="white"/>
<path d="M254.545 16.9697H246.061V25.4545H254.545V16.9697Z" fill="white"/>
<path d="M263.03 16.9697H254.545V25.4545H263.03V16.9697Z" fill="white"/>
<path d="M280 16.9697H271.515V25.4545H280V16.9697Z" fill="white"/>
<path d="M8.48485 25.4545H0V33.9394H8.48485V25.4545Z" fill="white"/>
<path d="M25.4545 25.4545H16.9697V33.9394H25.4545V25.4545Z" fill="white"/>
<path d="M33.9394 25.4545H25.4545V33.9394H33.9394V25.4545Z" fill="white"/>
<path d="M42.4242 25.4545H33.9394V33.9394H42.4242V25.4545Z" fill="white"/>
<path d="M59.3939 25.4545H50.9091V33.9394H59.3939V25.4545Z" fill="white"/>
<path d="M76.3636 25.4545H67.8788V33.9394H76.3636V25.4545Z" fill="white"/>
<path d="M110.303 25.4545H101.818V33.9394H110.303V25.4545Z" fill="white"/>
<path d="M127.273 25.4545H118.788V33.9394H127.273V25.4545Z" fill="white"/>
<path d="M144.242 25.4545H135.758V33.9394H144.242V25.4545Z" fill="white"/>
<path d="M169.697 25.4545H161.212V33.9394H169.697V25.4545Z" fill="white"/>
<path d="M178.182 25.4545H169.697V33.9394H178.182V25.4545Z" fill="white"/>
<path d="M195.152 25.4545H186.667V33.9394H195.152V25.4545Z" fill="white"/>
<path d="M203.636 25.4545H195.152V33.9394H203.636V25.4545Z" fill="white"/>
<path d="M229.091 25.4545H220.606V33.9394H229.091V25.4545Z" fill="white"/>
<path d="M246.061 25.4545H237.576V33.9394H246.061V25.4545Z" fill="white"/>
<path d="M254.545 25.4545H246.061V33.9394H254.545V25.4545Z" fill="white"/>
<path d="M263.03 25.4545H254.545V33.9394H263.03V25.4545Z" fill="white"/>
<path d="M280 25.4545H271.515V33.9394H280V25.4545Z" fill="white"/>
<path d="M8.48485 33.9394H0V42.4242H8.48485V33.9394Z" fill="white"/>
<path d="M25.4545 33.9394H16.9697V42.4242H25.4545V33.9394Z" fill="white"/>
<path d="M33.9394 33.9394H25.4545V42.4242H33.9394V33.9394Z" fill="white"/>
<path d="M42.4242 33.9394H33.9394V42.4242H42.4242V33.9394Z" fill="white"/>
<path d="M59.3939 33.9394H50.9091V42.4242H59.3939V33.9394Z" fill="white"/>
<path d="M84.8485 33.9394H76.3636V42.4242H84.8485V33.9394Z" fill="white"/>
<path d="M93.3333 33.9394H84.8485V42.4242H93.3333V33.9394Z" fill="white"/>
<path d="M101.818 33.9394H93.3333V42.4242H101.818V33.9394Z" fill="white"/>
<path d="M110.303 33.9394H101.818V42.4242H110.303V33.9394Z" fill="white"/>
<path d="M118.788 33.9394H110.303V42.4242H118.788V33.9394Z" fill="white"/>
<path d="M127.273 33.9394H118.788V42.4242H127.273V33.9394Z" fill="white"/>
<path d="M135.758 33.9394H127.273V42.4242H135.758V33.9394Z" fill="white"/>
<path d="M144.242 33.9394H135.758V42.4242H144.242V33.9394Z" fill="white"/>
<path d="M152.727 33.9394H144.242V42.4242H152.727V33.9394Z" fill="white"/>
<path d="M178.182 33.9394H169.697V42.4242H178.182V33.9394Z" fill="white"/>
<path d="M195.152 33.9394H186.667V42.4242H195.152V33.9394Z" fill="white"/>
<path d="M212.121 33.9394H203.636V42.4242H212.121V33.9394Z" fill="white"/>
<path d="M229.091 33.9394H220.606V42.4242H229.091V33.9394Z" fill="white"/>
<path d="M246.061 33.9394H237.576V42.4242H246.061V33.9394Z" fill="white"/>
<path d="M254.545 33.9394H246.061V42.4242H254.545V33.9394Z" fill="white"/>
<path d="M263.03 33.9394H254.545V42.4242H263.03V33.9394Z" fill="white"/>
<path d="M280 33.9394H271.515V42.4242H280V33.9394Z" fill="white"/>
<path d="M8.48485 42.4242H0V50.9091H8.48485V42.4242Z" fill="white"/>
<path d="M59.3939 42.4242H50.9091V50.9091H59.3939V42.4242Z" fill="white"/>
<path d="M76.3636 42.4242H67.8788V50.9091H76.3636V42.4242Z" fill="white"/>
<path d="M93.3333 42.4242H84.8485V50.9091H93.3333V42.4242Z" fill="white"/>
<path d="M127.273 42.4242H118.788V50.9091H127.273V42.4242Z" fill="white"/>
<path d="M144.242 42.4242H135.758V50.9091H144.242V42.4242Z" fill="white"/>
<path d="M161.212 42.4242H152.727V50.9091H161.212V42.4242Z" fill="white"/>
<path d="M169.697 42.4242H161.212V50.9091H169.697V42.4242Z" fill="white"/>
<path d="M186.667 42.4242H178.182V50.9091H186.667V42.4242Z" fill="white"/>
<path d="M212.121 42.4242H203.636V50.9091H212.121V42.4242Z" fill="white"/>
<path d="M229.091 42.4242H220.606V50.9091H229.091V42.4242Z" fill="white"/>
<path d="M280 42.4242H271.515V50.9091H280V42.4242Z" fill="white"/>
<path d="M8.48485 50.9091H0V59.3939H8.48485V50.9091Z" fill="white"/>
<path d="M16.9697 50.9091H8.48485V59.3939H16.9697V50.9091Z" fill="white"/>
<path d="M25.4545 50.9091H16.9697V59.3939H25.4545V50.9091Z" fill="white"/>
<path d="M33.9394 50.9091H25.4545V59.3939H33.9394V50.9091Z" fill="white"/>
<path d="M42.4242 50.9091H33.9394V59.3939H42.4242V50.9091Z" fill="white"/>
<path d="M50.9091 50.9091H42.4242V59.3939H50.9091V50.9091Z" fill="white"/>
<path d="M59.3939 50.9091H50.9091V59.3939H59.3939V50.9091Z" fill="white"/>
<path d="M76.3636 50.9091H67.8788V59.3939H76.3636V50.9091Z" fill="white"/>
<path d="M93.3333 50.9091H84.8485V59.3939H93.3333V50.9091Z" fill="white"/>
<path d="M110.303 50.9091H101.818V59.3939H110.303V50.9091Z" fill="white"/>
<path d="M127.273 50.9091H118.788V59.3939H127.273V50.9091Z" fill="white"/>
<path d="M144.242 50.9091H135.758V59.3939H144.242V50.9091Z" fill="white"/>
<path d="M161.212 50.9091H152.727V59.3939H161.212V50.9091Z" fill="white"/>
<path d="M178.182 50.9091H169.697V59.3939H178.182V50.9091Z" fill="white"/>
<path d="M195.152 50.9091H186.667V59.3939H195.152V50.9091Z" fill="white"/>
<path d="M212.121 50.9091H203.636V59.3939H212.121V50.9091Z" fill="white"/>
<path d="M229.091 50.9091H220.606V59.3939H229.091V50.9091Z" fill="white"/>
<path d="M237.576 50.9091H229.091V59.3939H237.576V50.9091Z" fill="white"/>
<path d="M246.061 50.9091H237.576V59.3939H246.061V50.9091Z" fill="white"/>
<path d="M254.545 50.9091H246.061V59.3939H254.545V50.9091Z" fill="white"/>
<path d="M263.03 50.9091H254.545V59.3939H263.03V50.9091Z" fill="white"/>
<path d="M271.515 50.9091H263.03V59.3939H271.515V50.9091Z" fill="white"/>
<path d="M280 50.9091H271.515V59.3939H280V50.9091Z" fill="white"/>
<path d="M76.3636 59.3939H67.8788V67.8788H76.3636V59.3939Z" fill="white"/>
<path d="M127.273 59.3939H118.788V67.8788H127.273V59.3939Z" fill="white"/>
<path d="M135.758 59.3939H127.273V67.8788H135.758V59.3939Z" fill="white"/>
<path d="M161.212 59.3939H152.727V67.8788H161.212V59.3939Z" fill="white"/>
<path d="M169.697 59.3939H161.212V67.8788H169.697V59.3939Z" fill="white"/>
<path d="M178.182 59.3939H169.697V67.8788H178.182V59.3939Z" fill="white"/>
<path d="M8.48485 67.8788H0V76.3636H8.48485V67.8788Z" fill="white"/>
<path d="M16.9697 67.8788H8.48485V76.3636H16.9697V67.8788Z" fill="white"/>
<path d="M33.9394 67.8788H25.4545V76.3636H33.9394V67.8788Z" fill="white"/>
<path d="M59.3939 67.8788H50.9091V76.3636H59.3939V67.8788Z" fill="white"/>
<path d="M67.8788 67.8788H59.3939V76.3636H67.8788V67.8788Z" fill="white"/>
<path d="M101.818 67.8788H93.3333V76.3636H101.818V67.8788Z" fill="white"/>
<path d="M110.303 67.8788H101.818V76.3636H110.303V67.8788Z" fill="white"/>
<path d="M118.788 67.8788H110.303V76.3636H118.788V67.8788Z" fill="white"/>
<path d="M127.273 67.8788H118.788V76.3636H127.273V67.8788Z" fill="white"/>
<path d="M135.758 67.8788H127.273V76.3636H135.758V67.8788Z" fill="white"/>
<path d="M152.727 67.8788H144.242V76.3636H152.727V67.8788Z" fill="white"/>
<path d="M169.697 67.8788H161.212L161.212 76.3636H169.697V67.8788Z" fill="white"/>
<path d="M186.667 67.8788H178.182V76.3636H186.667V67.8788Z" fill="white"/>
<path d="M195.152 67.8788H186.667V76.3636H195.152V67.8788Z" fill="white"/>
<path d="M203.636 67.8788H195.152V76.3636H203.636V67.8788Z" fill="white"/>
<path d="M212.121 67.8788H203.636V76.3636H212.121V67.8788Z" fill="white"/>
<path d="M220.606 67.8788H212.121V76.3636H220.606V67.8788Z" fill="white"/>
<path d="M229.091 67.8788H220.606V76.3636H229.091V67.8788Z" fill="white"/>
<path d="M237.576 67.8788H229.091V76.3636H237.576V67.8788Z" fill="white"/>
<path d="M254.545 67.8788H246.061V76.3636H254.545V67.8788Z" fill="white"/>
<path d="M263.03 67.8788H254.545V76.3636H263.03V67.8788Z" fill="white"/>
<path d="M280 67.8788H271.515V76.3636H280V67.8788Z" fill="white"/>
<path d="M8.48485 76.3636H0V84.8485H8.48485V76.3636Z" fill="white"/>
<path d="M16.9697 76.3636H8.48485V84.8485H16.9697V76.3636Z" fill="white"/>
<path d="M42.4242 76.3636H33.9394V84.8485H42.4242V76.3636Z" fill="white"/>
<path d="M84.8485 76.3636H76.3636V84.8485H84.8485V76.3636Z" fill="white"/>
<path d="M93.3333 76.3636H84.8485V84.8485H93.3333V76.3636Z" fill="white"/>
<path d="M110.303 76.3636H101.818V84.8485H110.303V76.3636Z" fill="white"/>
<path d="M135.758 76.3636H127.273V84.8485H135.758V76.3636Z" fill="white"/>
<path d="M152.727 76.3636H144.242V84.8485H152.727V76.3636Z" fill="white"/>
<path d="M169.697 76.3636H161.212V84.8485H169.697V76.3636Z" fill="white"/>
<path d="M186.667 76.3636H178.182V84.8485H186.667V76.3636Z" fill="white"/>
<path d="M195.152 76.3636H186.667V84.8485H195.152V76.3636Z" fill="white"/>
<path d="M203.636 76.3636H195.152V84.8485H203.636V76.3636Z" fill="white"/>
<path d="M280 76.3636H271.515V84.8485H280V76.3636Z" fill="white"/>
<path d="M42.4242 84.8485H33.9394V93.3333H42.4242V84.8485Z" fill="white"/>
<path d="M50.9091 84.8485H42.4242V93.3333H50.9091V84.8485Z" fill="white"/>
<path d="M59.3939 84.8485H50.9091V93.3333H59.3939V84.8485Z" fill="white"/>
<path d="M67.8788 84.8485H59.3939V93.3333H67.8788V84.8485Z" fill="white"/>
<path d="M76.3636 84.8485H67.8788V93.3333H76.3636V84.8485Z" fill="white"/>
<path d="M93.3333 84.8485H84.8485V93.3333H93.3333V84.8485Z" fill="white"/>
<path d="M118.788 84.8485H110.303V93.3333H118.788V84.8485Z" fill="white"/>
<path d="M135.758 84.8485H127.273V93.3333H135.758V84.8485Z" fill="white"/>
<path d="M144.242 84.8485H135.758V93.3333H144.242V84.8485Z" fill="white"/>
<path d="M169.697 84.8485H161.212V93.3333H169.697V84.8485Z" fill="white"/>
<path d="M195.152 84.8485H186.667V93.3333H195.152V84.8485Z" fill="white"/>
<path d="M203.636 84.8485H195.152V93.3333H203.636V84.8485Z" fill="white"/>
<path d="M212.121 84.8485H203.636V93.3333H212.121V84.8485Z" fill="white"/>
<path d="M220.606 84.8485H212.121V93.3333H220.606V84.8485Z" fill="white"/>
<path d="M246.061 84.8485H237.576V93.3333H246.061V84.8485Z" fill="white"/>
<path d="M263.03 84.8485H254.545V93.3333H263.03V84.8485Z" fill="white"/>
<path d="M33.9394 93.3333H25.4545V101.818H33.9394V93.3333Z" fill="white"/>
<path d="M67.8788 93.3333H59.3939V101.818H67.8788V93.3333Z" fill="white"/>
<path d="M84.8485 93.3333H76.3636V101.818H84.8485V93.3333Z" fill="white"/>
<path d="M93.3333 93.3333H84.8485V101.818H93.3333V93.3333Z" fill="white"/>
<path d="M118.788 93.3333H110.303V101.818H118.788V93.3333Z" fill="white"/>
<path d="M135.758 93.3333H127.273V101.818H135.758V93.3333Z" fill="white"/>
<path d="M144.242 93.3333H135.758V101.818H144.242V93.3333Z" fill="white"/>
<path d="M169.697 93.3333H161.212V101.818H169.697V93.3333Z" fill="white"/>
<path d="M186.667 93.3333H178.182V101.818H186.667V93.3333Z" fill="white"/>
<path d="M195.152 93.3333H186.667V101.818H195.152V93.3333Z" fill="white"/>
<path d="M203.636 93.3333H195.152V101.818H203.636V93.3333Z" fill="white"/>
<path d="M212.121 93.3333H203.636V101.818H212.121V93.3333Z" fill="white"/>
<path d="M246.061 93.3333H237.576V101.818H246.061V93.3333Z" fill="white"/>
<path d="M263.03 93.3333H254.545V101.818H263.03V93.3333Z" fill="white"/>
<path d="M16.9697 101.818H8.48485V110.303H16.9697V101.818Z" fill="white"/>
<path d="M33.9394 101.818H25.4545V110.303H33.9394V101.818Z" fill="white"/>
<path d="M59.3939 101.818H50.9091V110.303H59.3939V101.818Z" fill="white"/>
<path d="M67.8788 101.818H59.3939V110.303H67.8788V101.818Z" fill="white"/>
<path d="M76.3636 101.818H67.8788V110.303H76.3636V101.818Z" fill="white"/>
<path d="M127.273 101.818H118.788V110.303H127.273V101.818Z" fill="white"/>
<path d="M144.242 101.818H135.758V110.303H144.242V101.818Z" fill="white"/>
<path d="M152.727 101.818H144.242V110.303H152.727V101.818Z" fill="white"/>
<path d="M161.212 101.818H152.727V110.303H161.212L161.212 101.818Z" fill="white"/>
<path d="M169.697 101.818H161.212L161.212 110.303H169.697V101.818Z" fill="white"/>
<path d="M178.182 101.818H169.697V110.303H178.182V101.818Z" fill="white"/>
<path d="M186.667 101.818H178.182V110.303H186.667V101.818Z" fill="white"/>
<path d="M212.121 101.818H203.636V110.303H212.121V101.818Z" fill="white"/>
<path d="M220.606 101.818H212.121V110.303H220.606V101.818Z" fill="white"/>
<path d="M229.091 101.818H220.606V110.303H229.091V101.818Z" fill="white"/>
<path d="M280 101.818H271.515V110.303H280V101.818Z" fill="white"/>
<path d="M8.48485 110.303H0V118.788H8.48485V110.303Z" fill="white"/>
<path d="M16.9697 110.303H8.48485V118.788H16.9697V110.303Z" fill="white"/>
<path d="M42.4242 110.303H33.9394V118.788H42.4242V110.303Z" fill="white"/>
<path d="M101.818 110.303H93.3333V118.788H101.818V110.303Z" fill="white"/>
<path d="M127.273 110.303H118.788V118.788H127.273V110.303Z" fill="white"/>
<path d="M169.697 110.303H161.212L161.212 118.788H169.697V110.303Z" fill="white"/>
<path d="M195.152 110.303H186.667V118.788H195.152V110.303Z" fill="white"/>
<path d="M263.03 110.303H254.545V118.788H263.03V110.303Z" fill="white"/>
<path d="M271.515 110.303H263.03V118.788H271.515V110.303Z" fill="white"/>
<path d="M33.9394 118.788H25.4545V127.273H33.9394V118.788Z" fill="white"/>
<path d="M42.4242 118.788H33.9394V127.273H42.4242V118.788Z" fill="white"/>
<path d="M59.3939 118.788H50.9091V127.273H59.3939V118.788Z" fill="white"/>
<path d="M67.8788 118.788H59.3939V127.273H67.8788V118.788Z" fill="white"/>
<path d="M76.3636 118.788H67.8788V127.273H76.3636V118.788Z" fill="white"/>
<path d="M93.3333 118.788H84.8485V127.273H93.3333V118.788Z" fill="white"/>
<path d="M101.818 118.788H93.3333V127.273H101.818V118.788Z" fill="white"/>
<path d="M135.758 118.788H127.273V127.273H135.758V118.788Z" fill="white"/>
<path d="M144.242 118.788H135.758V127.273H144.242V118.788Z" fill="white"/>
<path d="M152.727 118.788H144.242V127.273H152.727V118.788Z" fill="white"/>
<path d="M161.212 118.788H152.727V127.273H161.212L161.212 118.788Z" fill="white"/>
<path d="M178.182 118.788H169.697V127.273H178.182V118.788Z" fill="white"/>
<path d="M203.636 118.788H195.152V127.273H203.636V118.788Z" fill="white"/>
<path d="M212.121 118.788H203.636V127.273H212.121V118.788Z" fill="white"/>
<path d="M237.576 118.788H229.091V127.273H237.576V118.788Z" fill="white"/>
<path d="M263.03 118.788H254.545V127.273H263.03V118.788Z" fill="white"/>
<path d="M280 118.788H271.515V127.273H280V118.788Z" fill="white"/>
<path d="M25.4545 127.273H16.9697V135.758H25.4545V127.273Z" fill="white"/>
<path d="M110.303 127.273H101.818V135.758H110.303V127.273Z" fill="white"/>
<path d="M127.273 127.273H118.788V135.758H127.273V127.273Z" fill="white"/>
<path d="M144.242 127.273H135.758V135.758H144.242V127.273Z" fill="white"/>
<path d="M152.727 127.273H144.242V135.758H152.727V127.273Z" fill="white"/>
<path d="M161.212 127.273H152.727V135.758H161.212V127.273Z" fill="white"/>
<path d="M169.697 127.273H161.212V135.758H169.697V127.273Z" fill="white"/>
<path d="M186.667 127.273H178.182V135.758H186.667V127.273Z" fill="white"/>
<path d="M212.121 127.273H203.636V135.758H212.121V127.273Z" fill="white"/>
<path d="M220.606 127.273H212.121V135.758H220.606V127.273Z" fill="white"/>
<path d="M271.515 127.273H263.03V135.758H271.515V127.273Z" fill="white"/>
<path d="M280 127.273H271.515V135.758H280V127.273Z" fill="white"/>
<path d="M8.48485 135.758H0V144.242H8.48485V135.758Z" fill="white"/>
<path d="M16.9697 135.758H8.48485V144.242H16.9697V135.758Z" fill="white"/>
<path d="M25.4545 135.758H16.9697V144.242H25.4545V135.758Z" fill="white"/>
<path d="M33.9394 135.758H25.4545V144.242H33.9394V135.758Z" fill="white"/>
<path d="M59.3939 135.758H50.9091V144.242H59.3939V135.758Z" fill="white"/>
<path d="M76.3636 135.758H67.8788V144.242H76.3636V135.758Z" fill="white"/>
<path d="M84.8485 135.758H76.3636V144.242H84.8485V135.758Z" fill="white"/>
<path d="M118.788 135.758H110.303V144.242H118.788V135.758Z" fill="white"/>
<path d="M127.273 135.758H118.788V144.242H127.273V135.758Z" fill="white"/>
<path d="M135.758 135.758H127.273V144.242H135.758V135.758Z" fill="white"/>
<path d="M144.242 135.758H135.758V144.242H144.242V135.758Z" fill="white"/>
<path d="M169.697 135.758H161.212L161.212 144.242H169.697V135.758Z" fill="white"/>
<path d="M195.152 135.758H186.667V144.242H195.152V135.758Z" fill="white"/>
<path d="M203.636 135.758H195.152V144.242H203.636V135.758Z" fill="white"/>
<path d="M212.121 135.758H203.636V144.242H212.121V135.758Z" fill="white"/>
<path d="M220.606 135.758H212.121V144.242H220.606V135.758Z" fill="white"/>
<path d="M271.515 135.758H263.03V144.242H271.515V135.758Z" fill="white"/>
<path d="M8.48485 144.242H0V152.727H8.48485V144.242Z" fill="white"/>
<path d="M25.4545 144.242H16.9697V152.727H25.4545V144.242Z" fill="white"/>
<path d="M67.8788 144.242H59.3939V152.727H67.8788V144.242Z" fill="white"/>
<path d="M76.3636 144.242H67.8788V152.727H76.3636V144.242Z" fill="white"/>
<path d="M93.3333 144.242H84.8485V152.727H93.3333V144.242Z" fill="white"/>
<path d="M127.273 144.242H118.788V152.727H127.273V144.242Z" fill="white"/>
<path d="M152.727 144.242H144.242V152.727H152.727V144.242Z" fill="white"/>
<path d="M161.212 144.242H152.727V152.727H161.212L161.212 144.242Z" fill="white"/>
<path d="M186.667 144.242H178.182V152.727H186.667V144.242Z" fill="white"/>
<path d="M212.121 144.242H203.636V152.727H212.121V144.242Z" fill="white"/>
<path d="M220.606 144.242H212.121V152.727H220.606V144.242Z" fill="white"/>
<path d="M246.061 144.242H237.576V152.727H246.061V144.242Z" fill="white"/>
<path d="M263.03 144.242H254.545V152.727H263.03V144.242Z" fill="white"/>
<path d="M271.515 144.242H263.03V152.727H271.515V144.242Z" fill="white"/>
<path d="M280 144.242H271.515V152.727H280V144.242Z" fill="white"/>
<path d="M8.48485 152.727H0V161.212H8.48485V152.727Z" fill="white"/>
<path d="M16.9697 152.727H8.48485V161.212H16.9697V152.727Z" fill="white"/>
<path d="M59.3939 152.727H50.9091V161.212H59.3939V152.727Z" fill="white"/>
<path d="M67.8788 152.727H59.3939V161.212H67.8788V152.727Z" fill="white"/>
<path d="M76.3636 152.727H67.8788V161.212H76.3636V152.727Z" fill="white"/>
<path d="M84.8485 152.727H76.3636V161.212H84.8485V152.727Z" fill="white"/>
<path d="M101.818 152.727H93.3333V161.212H101.818V152.727Z" fill="white"/>
<path d="M110.303 152.727H101.818V161.212H110.303V152.727Z" fill="white"/>
<path d="M118.788 152.727H110.303V161.212H118.788V152.727Z" fill="white"/>
<path d="M127.273 152.727H118.788V161.212H127.273V152.727Z" fill="white"/>
<path d="M135.758 152.727H127.273V161.212H135.758V152.727Z" fill="white"/>
<path d="M178.182 152.727H169.697V161.212H178.182V152.727Z" fill="white"/>
<path d="M186.667 152.727H178.182V161.212H186.667V152.727Z" fill="white"/>
<path d="M195.152 152.727H186.667V161.212H195.152V152.727Z" fill="white"/>
<path d="M203.636 152.727H195.152V161.212H203.636V152.727Z" fill="white"/>
<path d="M220.606 152.727H212.121V161.212H220.606V152.727Z" fill="white"/>
<path d="M254.545 152.727H246.061V161.212H254.545V152.727Z" fill="white"/>
<path d="M271.515 152.727H263.03V161.212H271.515V152.727Z" fill="white"/>
<path d="M280 152.727H271.515V161.212H280V152.727Z" fill="white"/>
<path d="M8.48485 161.212H0V169.697H8.48485V161.212Z" fill="white"/>
<path d="M33.9394 161.212H25.4545V169.697H33.9394V161.212Z" fill="white"/>
<path d="M50.9091 161.212L42.4242 161.212V169.697H50.9091V161.212Z" fill="white"/>
<path d="M76.3636 161.212H67.8788V169.697H76.3636V161.212Z" fill="white"/>
<path d="M84.8485 161.212H76.3636V169.697H84.8485V161.212Z" fill="white"/>
<path d="M110.303 161.212H101.818V169.697H110.303V161.212Z" fill="white"/>
<path d="M135.758 161.212H127.273V169.697H135.758V161.212Z" fill="white"/>
<path d="M144.242 161.212L135.758 161.212V169.697H144.242V161.212Z" fill="white"/>
<path d="M169.697 161.212L161.212 161.212V169.697H169.697V161.212Z" fill="white"/>
<path d="M203.636 161.212H195.152V169.697H203.636V161.212Z" fill="white"/>
<path d="M220.606 161.212H212.121V169.697H220.606V161.212Z" fill="white"/>
<path d="M229.091 161.212L220.606 161.212V169.697H229.091V161.212Z" fill="white"/>
<path d="M246.061 161.212L237.576 161.212V169.697H246.061V161.212Z" fill="white"/>
<path d="M254.545 161.212H246.061V169.697H254.545V161.212Z" fill="white"/>
<path d="M263.03 161.212H254.545V169.697H263.03V161.212Z" fill="white"/>
<path d="M271.515 161.212H263.03V169.697H271.515V161.212Z" fill="white"/>
<path d="M8.48485 169.697H0V178.182H8.48485V169.697Z" fill="white"/>
<path d="M25.4545 169.697H16.9697V178.182H25.4545V169.697Z" fill="white"/>
<path d="M33.9394 169.697H25.4545V178.182H33.9394V169.697Z" fill="white"/>
<path d="M42.4242 169.697H33.9394V178.182H42.4242V169.697Z" fill="white"/>
<path d="M50.9091 169.697H42.4242V178.182H50.9091V169.697Z" fill="white"/>
<path d="M59.3939 169.697H50.9091V178.182H59.3939V169.697Z" fill="white"/>
<path d="M67.8788 169.697H59.3939V178.182H67.8788V169.697Z" fill="white"/>
<path d="M84.8485 169.697H76.3636V178.182H84.8485V169.697Z" fill="white"/>
<path d="M93.3333 169.697H84.8485V178.182H93.3333V169.697Z" fill="white"/>
<path d="M135.758 169.697H127.273V178.182H135.758V169.697Z" fill="white"/>
<path d="M144.242 169.697H135.758V178.182H144.242V169.697Z" fill="white"/>
<path d="M152.727 169.697H144.242V178.182H152.727V169.697Z" fill="white"/>
<path d="M161.212 169.697H152.727V178.182H161.212L161.212 169.697Z" fill="white"/>
<path d="M178.182 169.697H169.697V178.182H178.182V169.697Z" fill="white"/>
<path d="M220.606 169.697H212.121V178.182H220.606V169.697Z" fill="white"/>
<path d="M229.091 169.697H220.606V178.182H229.091V169.697Z" fill="white"/>
<path d="M237.576 169.697H229.091V178.182H237.576V169.697Z" fill="white"/>
<path d="M246.061 169.697H237.576V178.182H246.061V169.697Z" fill="white"/>
<path d="M254.545 169.697H246.061V178.182H254.545V169.697Z" fill="white"/>
<path d="M16.9697 178.182H8.48485V186.667H16.9697V178.182Z" fill="white"/>
<path d="M25.4545 178.182H16.9697V186.667H25.4545V178.182Z" fill="white"/>
<path d="M33.9394 178.182H25.4545V186.667H33.9394V178.182Z" fill="white"/>
<path d="M76.3636 178.182H67.8788V186.667H76.3636V178.182Z" fill="white"/>
<path d="M84.8485 178.182H76.3636V186.667H84.8485V178.182Z" fill="white"/>
<path d="M110.303 178.182H101.818V186.667H110.303V178.182Z" fill="white"/>
<path d="M118.788 178.182H110.303V186.667H118.788V178.182Z" fill="white"/>
<path d="M127.273 178.182H118.788V186.667H127.273V178.182Z" fill="white"/>
<path d="M135.758 178.182H127.273V186.667H135.758V178.182Z" fill="white"/>
<path d="M144.242 178.182H135.758V186.667H144.242V178.182Z" fill="white"/>
<path d="M152.727 178.182H144.242V186.667H152.727V178.182Z" fill="white"/>
<path d="M169.697 178.182H161.212L161.212 186.667H169.697V178.182Z" fill="white"/>
<path d="M186.667 178.182H178.182V186.667H186.667V178.182Z" fill="white"/>
<path d="M195.152 178.182H186.667V186.667H195.152V178.182Z" fill="white"/>
<path d="M237.576 178.182H229.091V186.667H237.576V178.182Z" fill="white"/>
<path d="M254.545 178.182H246.061V186.667H254.545V178.182Z" fill="white"/>
<path d="M280 178.182H271.515V186.667H280V178.182Z" fill="white"/>
<path d="M8.48485 186.667H0V195.152H8.48485V186.667Z" fill="white"/>
<path d="M16.9697 186.667H8.48485V195.152H16.9697V186.667Z" fill="white"/>
<path d="M25.4545 186.667H16.9697V195.152H25.4545V186.667Z" fill="white"/>
<path d="M33.9394 186.667H25.4545V195.152H33.9394V186.667Z" fill="white"/>
<path d="M59.3939 186.667H50.9091V195.152H59.3939V186.667Z" fill="white"/>
<path d="M76.3636 186.667H67.8788V195.152H76.3636V186.667Z" fill="white"/>
<path d="M118.788 186.667H110.303V195.152H118.788V186.667Z" fill="white"/>
<path d="M144.242 186.667H135.758V195.152H144.242V186.667Z" fill="white"/>
<path d="M152.727 186.667H144.242V195.152H152.727V186.667Z" fill="white"/>
<path d="M161.212 186.667H152.727V195.152H161.212L161.212 186.667Z" fill="white"/>
<path d="M212.121 186.667H203.636V195.152H212.121V186.667Z" fill="white"/>
<path d="M229.091 186.667H220.606V195.152H229.091V186.667Z" fill="white"/>
<path d="M237.576 186.667H229.091V195.152H237.576V186.667Z" fill="white"/>
<path d="M263.03 186.667H254.545V195.152H263.03V186.667Z" fill="white"/>
<path d="M271.515 186.667H263.03V195.152H271.515V186.667Z" fill="white"/>
<path d="M8.48485 195.152H0V203.636H8.48485V195.152Z" fill="white"/>
<path d="M16.9697 195.152H8.48485V203.636H16.9697V195.152Z" fill="white"/>
<path d="M33.9394 195.152H25.4545V203.636H33.9394V195.152Z" fill="white"/>
<path d="M42.4242 195.152H33.9394V203.636H42.4242V195.152Z" fill="white"/>
<path d="M76.3636 195.152H67.8788V203.636H76.3636V195.152Z" fill="white"/>
<path d="M84.8485 195.152H76.3636V203.636H84.8485V195.152Z" fill="white"/>
<path d="M93.3333 195.152H84.8485V203.636H93.3333V195.152Z" fill="white"/>
<path d="M110.303 195.152H101.818V203.636H110.303V195.152Z" fill="white"/>
<path d="M144.242 195.152H135.758V203.636H144.242V195.152Z" fill="white"/>
<path d="M152.727 195.152H144.242V203.636H152.727V195.152Z" fill="white"/>
<path d="M169.697 195.152H161.212L161.212 203.636H169.697V195.152Z" fill="white"/>
<path d="M186.667 195.152H178.182V203.636H186.667V195.152Z" fill="white"/>
<path d="M195.152 195.152H186.667V203.636H195.152V195.152Z" fill="white"/>
<path d="M212.121 195.152H203.636V203.636H212.121V195.152Z" fill="white"/>
<path d="M229.091 195.152H220.606V203.636H229.091V195.152Z" fill="white"/>
<path d="M237.576 195.152H229.091V203.636H237.576V195.152Z" fill="white"/>
<path d="M246.061 195.152H237.576V203.636H246.061V195.152Z" fill="white"/>
<path d="M254.545 195.152H246.061V203.636H254.545V195.152Z" fill="white"/>
<path d="M263.03 195.152H254.545V203.636H263.03V195.152Z" fill="white"/>
<path d="M271.515 195.152H263.03V203.636H271.515V195.152Z" fill="white"/>
<path d="M280 195.152H271.515V203.636H280V195.152Z" fill="white"/>
<path d="M16.9697 203.636H8.48485V212.121H16.9697V203.636Z" fill="white"/>
<path d="M33.9394 203.636H25.4545V212.121H33.9394V203.636Z" fill="white"/>
<path d="M59.3939 203.636H50.9091V212.121H59.3939V203.636Z" fill="white"/>
<path d="M67.8788 203.636H59.3939V212.121H67.8788V203.636Z" fill="white"/>
<path d="M101.818 203.636H93.3333V212.121H101.818V203.636Z" fill="white"/>
<path d="M110.303 203.636H101.818V212.121H110.303V203.636Z" fill="white"/>
<path d="M118.788 203.636H110.303V212.121H118.788V203.636Z" fill="white"/>
<path d="M127.273 203.636H118.788V212.121H127.273V203.636Z" fill="white"/>
<path d="M135.758 203.636H127.273V212.121H135.758V203.636Z" fill="white"/>
<path d="M152.727 203.636H144.242V212.121H152.727V203.636Z" fill="white"/>
<path d="M161.212 203.636H152.727V212.121H161.212L161.212 203.636Z" fill="white"/>
<path d="M212.121 203.636H203.636V212.121H212.121V203.636Z" fill="white"/>
<path d="M220.606 203.636H212.121V212.121H220.606V203.636Z" fill="white"/>
<path d="M229.091 203.636H220.606V212.121H229.091V203.636Z" fill="white"/>
<path d="M237.576 203.636H229.091V212.121H237.576V203.636Z" fill="white"/>
<path d="M246.061 203.636H237.576V212.121H246.061V203.636Z" fill="white"/>
<path d="M263.03 203.636H254.545V212.121H263.03V203.636Z" fill="white"/>
<path d="M271.515 203.636H263.03V212.121H271.515V203.636Z" fill="white"/>
<path d="M93.3333 212.121H84.8485V220.606H93.3333V212.121Z" fill="white"/>
<path d="M135.758 212.121H127.273V220.606H135.758V212.121Z" fill="white"/>
<path d="M144.242 212.121H135.758V220.606H144.242V212.121Z" fill="white"/>
<path d="M161.212 212.121H152.727V220.606H161.212V212.121Z" fill="white"/>
<path d="M169.697 212.121H161.212V220.606H169.697V212.121Z" fill="white"/>
<path d="M203.636 212.121H195.152V220.606H203.636V212.121Z" fill="white"/>
<path d="M212.121 212.121H203.636V220.606H212.121V212.121Z" fill="white"/>
<path d="M246.061 212.121H237.576V220.606H246.061V212.121Z" fill="white"/>
<path d="M8.48485 220.606H0V229.091H8.48485V220.606Z" fill="white"/>
<path d="M16.9697 220.606H8.48485V229.091H16.9697V220.606Z" fill="white"/>
<path d="M25.4545 220.606H16.9697V229.091H25.4545V220.606Z" fill="white"/>
<path d="M33.9394 220.606H25.4545V229.091H33.9394V220.606Z" fill="white"/>
<path d="M42.4242 220.606H33.9394V229.091H42.4242V220.606Z" fill="white"/>
<path d="M50.9091 220.606H42.4242V229.091H50.9091V220.606Z" fill="white"/>
<path d="M59.3939 220.606H50.9091V229.091H59.3939V220.606Z" fill="white"/>
<path d="M76.3636 220.606H67.8788V229.091H76.3636V220.606Z" fill="white"/>
<path d="M84.8485 220.606H76.3636V229.091H84.8485V220.606Z" fill="white"/>
<path d="M127.273 220.606H118.788V229.091H127.273V220.606Z" fill="white"/>
<path d="M135.758 220.606H127.273V229.091H135.758V220.606Z" fill="white"/>
<path d="M144.242 220.606H135.758V229.091H144.242V220.606Z" fill="white"/>
<path d="M152.727 220.606H144.242V229.091H152.727V220.606Z" fill="white"/>
<path d="M161.212 220.606H152.727V229.091H161.212V220.606Z" fill="white"/>
<path d="M169.697 220.606H161.212V229.091H169.697V220.606Z" fill="white"/>
<path d="M186.667 220.606H178.182V229.091H186.667V220.606Z" fill="white"/>
<path d="M195.152 220.606H186.667V229.091H195.152V220.606Z" fill="white"/>
<path d="M203.636 220.606H195.152V229.091H203.636V220.606Z" fill="white"/>
<path d="M212.121 220.606H203.636V229.091H212.121V220.606Z" fill="white"/>
<path d="M229.091 220.606H220.606V229.091H229.091V220.606Z" fill="white"/>
<path d="M246.061 220.606H237.576V229.091H246.061V220.606Z" fill="white"/>
<path d="M263.03 220.606H254.545V229.091H263.03V220.606Z" fill="white"/>
<path d="M280 220.606H271.515V229.091H280V220.606Z" fill="white"/>
<path d="M8.48485 229.091H0V237.576H8.48485V229.091Z" fill="white"/>
<path d="M59.3939 229.091H50.9091V237.576H59.3939V229.091Z" fill="white"/>
<path d="M84.8485 229.091H76.3636V237.576H84.8485V229.091Z" fill="white"/>
<path d="M93.3333 229.091H84.8485V237.576H93.3333V229.091Z" fill="white"/>
<path d="M101.818 229.091H93.3333V237.576H101.818V229.091Z" fill="white"/>
<path d="M110.303 229.091H101.818V237.576H110.303V229.091Z" fill="white"/>
<path d="M118.788 229.091H110.303V237.576H118.788V229.091Z" fill="white"/>
<path d="M127.273 229.091H118.788V237.576H127.273V229.091Z" fill="white"/>
<path d="M135.758 229.091H127.273V237.576H135.758V229.091Z" fill="white"/>
<path d="M161.212 229.091H152.727V237.576H161.212V229.091Z" fill="white"/>
<path d="M195.152 229.091H186.667V237.576H195.152V229.091Z" fill="white"/>
<path d="M212.121 229.091H203.636V237.576H212.121V229.091Z" fill="white"/>
<path d="M246.061 229.091H237.576V237.576H246.061V229.091Z" fill="white"/>
<path d="M254.545 229.091H246.061V237.576H254.545V229.091Z" fill="white"/>
<path d="M263.03 229.091H254.545V237.576H263.03V229.091Z" fill="white"/>
<path d="M271.515 229.091H263.03V237.576H271.515V229.091Z" fill="white"/>
<path d="M8.48485 237.576H0V246.061H8.48485V237.576Z" fill="white"/>
<path d="M25.4545 237.576H16.9697V246.061H25.4545V237.576Z" fill="white"/>
<path d="M33.9394 237.576H25.4545V246.061H33.9394V237.576Z" fill="white"/>
<path d="M42.4242 237.576H33.9394V246.061H42.4242V237.576Z" fill="white"/>
<path d="M59.3939 237.576H50.9091V246.061H59.3939V237.576Z" fill="white"/>
<path d="M93.3333 237.576H84.8485V246.061H93.3333V237.576Z" fill="white"/>
<path d="M110.303 237.576H101.818V246.061H110.303V237.576Z" fill="white"/>
<path d="M127.273 237.576H118.788V246.061H127.273V237.576Z" fill="white"/>
<path d="M135.758 237.576H127.273V246.061H135.758V237.576Z" fill="white"/>
<path d="M144.242 237.576H135.758V246.061H144.242V237.576Z" fill="white"/>
<path d="M152.727 237.576H144.242V246.061H152.727V237.576Z" fill="white"/>
<path d="M161.212 237.576H152.727V246.061H161.212V237.576Z" fill="white"/>
<path d="M169.697 237.576H161.212V246.061H169.697V237.576Z" fill="white"/>
<path d="M203.636 237.576H195.152V246.061H203.636V237.576Z" fill="white"/>
<path d="M212.121 237.576H203.636V246.061H212.121V237.576Z" fill="white"/>
<path d="M220.606 237.576H212.121V246.061H220.606V237.576Z" fill="white"/>
<path d="M229.091 237.576H220.606V246.061H229.091V237.576Z" fill="white"/>
<path d="M237.576 237.576H229.091V246.061H237.576V237.576Z" fill="white"/>
<path d="M246.061 237.576H237.576V246.061H246.061V237.576Z" fill="white"/>
<path d="M271.515 237.576H263.03V246.061H271.515V237.576Z" fill="white"/>
<path d="M280 237.576H271.515V246.061H280V237.576Z" fill="white"/>
<path d="M8.48485 246.061H0V254.545H8.48485V246.061Z" fill="white"/>
<path d="M25.4545 246.061H16.9697V254.545H25.4545V246.061Z" fill="white"/>
<path d="M33.9394 246.061H25.4545V254.545H33.9394V246.061Z" fill="white"/>
<path d="M42.4242 246.061H33.9394V254.545H42.4242V246.061Z" fill="white"/>
<path d="M59.3939 246.061H50.9091V254.545H59.3939V246.061Z" fill="white"/>
<path d="M76.3636 246.061H67.8788V254.545H76.3636V246.061Z" fill="white"/>
<path d="M84.8485 246.061H76.3636V254.545H84.8485V246.061Z" fill="white"/>
<path d="M93.3333 246.061H84.8485V254.545H93.3333V246.061Z" fill="white"/>
<path d="M101.818 246.061H93.3333V254.545H101.818V246.061Z" fill="white"/>
<path d="M110.303 246.061H101.818V254.545H110.303V246.061Z" fill="white"/>
<path d="M118.788 246.061H110.303V254.545H118.788V246.061Z" fill="white"/>
<path d="M127.273 246.061H118.788V254.545H127.273V246.061Z" fill="white"/>
<path d="M144.242 246.061H135.758V254.545H144.242V246.061Z" fill="white"/>
<path d="M152.727 246.061H144.242V254.545H152.727V246.061Z" fill="white"/>
<path d="M178.182 246.061H169.697V254.545H178.182V246.061Z" fill="white"/>
<path d="M186.667 246.061H178.182V254.545H186.667V246.061Z" fill="white"/>
<path d="M203.636 246.061H195.152V254.545H203.636V246.061Z" fill="white"/>
<path d="M212.121 246.061H203.636V254.545H212.121V246.061Z" fill="white"/>
<path d="M220.606 246.061H212.121V254.545H220.606V246.061Z" fill="white"/>
<path d="M237.576 246.061H229.091V254.545H237.576V246.061Z" fill="white"/>
<path d="M263.03 246.061H254.545V254.545H263.03V246.061Z" fill="white"/>
<path d="M8.48485 254.545H0V263.03H8.48485V254.545Z" fill="white"/>
<path d="M25.4545 254.545H16.9697V263.03H25.4545V254.545Z" fill="white"/>
<path d="M33.9394 254.545H25.4545V263.03H33.9394V254.545Z" fill="white"/>
<path d="M42.4242 254.545H33.9394V263.03H42.4242V254.545Z" fill="white"/>
<path d="M59.3939 254.545H50.9091V263.03H59.3939V254.545Z" fill="white"/>
<path d="M84.8485 254.545H76.3636V263.03H84.8485V254.545Z" fill="white"/>
<path d="M135.758 254.545H127.273V263.03H135.758V254.545Z" fill="white"/>
<path d="M144.242 254.545H135.758V263.03H144.242V254.545Z" fill="white"/>
<path d="M161.212 254.545H152.727V263.03H161.212V254.545Z" fill="white"/>
<path d="M178.182 254.545H169.697V263.03H178.182V254.545Z" fill="white"/>
<path d="M237.576 254.545H229.091V263.03H237.576V254.545Z" fill="white"/>
<path d="M246.061 254.545H237.576V263.03H246.061V254.545Z" fill="white"/>
<path d="M280 254.545H271.515V263.03H280V254.545Z" fill="white"/>
<path d="M8.48485 263.03H0V271.515H8.48485V263.03Z" fill="white"/>
<path d="M59.3939 263.03H50.9091V271.515H59.3939V263.03Z" fill="white"/>
<path d="M76.3636 263.03H67.8788V271.515H76.3636V263.03Z" fill="white"/>
<path d="M93.3333 263.03H84.8485V271.515H93.3333V263.03Z" fill="white"/>
<path d="M101.818 263.03H93.3333V271.515H101.818V263.03Z" fill="white"/>
<path d="M118.788 263.03H110.303V271.515H118.788V263.03Z" fill="white"/>
<path d="M152.727 263.03H144.242V271.515H152.727V263.03Z" fill="white"/>
<path d="M161.212 263.03H152.727V271.515H161.212V263.03Z" fill="white"/>
<path d="M169.697 263.03H161.212V271.515H169.697V263.03Z" fill="white"/>
<path d="M178.182 263.03H169.697V271.515H178.182V263.03Z" fill="white"/>
<path d="M195.152 263.03H186.667V271.515H195.152V263.03Z" fill="white"/>
<path d="M203.636 263.03H195.152V271.515H203.636V263.03Z" fill="white"/>
<path d="M212.121 263.03H203.636V271.515H212.121V263.03Z" fill="white"/>
<path d="M220.606 263.03H212.121V271.515H220.606V263.03Z" fill="white"/>
<path d="M237.576 263.03H229.091V271.515H237.576V263.03Z" fill="white"/>
<path d="M254.545 263.03H246.061V271.515H254.545V263.03Z" fill="white"/>
<path d="M8.48485 271.515H0V280H8.48485V271.515Z" fill="white"/>
<path d="M16.9697 271.515H8.48485V280H16.9697V271.515Z" fill="white"/>
<path d="M25.4545 271.515H16.9697V280H25.4545V271.515Z" fill="white"/>
<path d="M33.9394 271.515H25.4545V280H33.9394V271.515Z" fill="white"/>
<path d="M42.4242 271.515H33.9394V280H42.4242V271.515Z" fill="white"/>
<path d="M50.9091 271.515H42.4242V280H50.9091V271.515Z" fill="white"/>
<path d="M59.3939 271.515H50.9091V280H59.3939V271.515Z" fill="white"/>
<path d="M76.3636 271.515H67.8788V280H76.3636V271.515Z" fill="white"/>
<path d="M84.8485 271.515H76.3636V280H84.8485V271.515Z" fill="white"/>
<path d="M93.3333 271.515H84.8485V280H93.3333V271.515Z" fill="white"/>
<path d="M110.303 271.515H101.818V280H110.303V271.515Z" fill="white"/>
<path d="M152.727 271.515H144.242V280H152.727V271.515Z" fill="white"/>
<path d="M169.697 271.515H161.212L161.212 280H169.697V271.515Z" fill="white"/>
<path d="M186.667 271.515H178.182V280H186.667V271.515Z" fill="white"/>
<path d="M195.152 271.515H186.667V280H195.152V271.515Z" fill="white"/>
<path d="M212.121 271.515H203.636V280H212.121V271.515Z" fill="white"/>
<path d="M254.545 271.515H246.061V280H254.545V271.515Z" fill="white"/>
<path d="M271.515 271.515H263.03V280H271.515V271.515Z" fill="white"/>
</svg>
